<?xml version="1.0" standalone="no"?>
<svg xmlns:xlink="http://www.w3.org/1999/xlink" id="wave" style="transform:rotate(0deg); transition: 0.3s" viewBox="0 0 1440 490" version="1.1" xmlns="http://www.w3.org/2000/svg"><defs><linearGradient id="sw-gradient-0" x1="0" x2="0" y1="1" y2="0"><stop stop-color="rgba(114, 51, 20, 1)" offset="0%"/><stop stop-color="rgba(114, 51, 20, 1)" offset="100%"/></linearGradient></defs><path style="transform:translate(0, 0px); opacity:1" fill="url(#sw-gradient-0)" d="M0,98L24,89.8C48,82,96,65,144,81.7C192,98,240,147,288,196C336,245,384,294,432,294C480,294,528,245,576,261.3C624,278,672,359,720,400.2C768,441,816,441,864,408.3C912,376,960,310,1008,302.2C1056,294,1104,343,1152,351.2C1200,359,1248,327,1296,269.5C1344,212,1392,131,1440,89.8C1488,49,1536,49,1584,65.3C1632,82,1680,114,1728,122.5C1776,131,1824,114,1872,163.3C1920,212,1968,327,2016,375.7C2064,425,2112,408,2160,359.3C2208,310,2256,229,2304,204.2C2352,180,2400,212,2448,228.7C2496,245,2544,245,2592,277.7C2640,310,2688,376,2736,334.8C2784,294,2832,147,2880,138.8C2928,131,2976,261,3024,294C3072,327,3120,261,3168,212.3C3216,163,3264,131,3312,138.8C3360,147,3408,196,3432,220.5L3456,245L3456,490L3432,490C3408,490,3360,490,3312,490C3264,490,3216,490,3168,490C3120,490,3072,490,3024,490C2976,490,2928,490,2880,490C2832,490,2784,490,2736,490C2688,490,2640,490,2592,490C2544,490,2496,490,2448,490C2400,490,2352,490,2304,490C2256,490,2208,490,2160,490C2112,490,2064,490,2016,490C1968,490,1920,490,1872,490C1824,490,1776,490,1728,490C1680,490,1632,490,1584,490C1536,490,1488,490,1440,490C1392,490,1344,490,1296,490C1248,490,1200,490,1152,490C1104,490,1056,490,1008,490C960,490,912,490,864,490C816,490,768,490,720,490C672,490,624,490,576,490C528,490,480,490,432,490C384,490,336,490,288,490C240,490,192,490,144,490C96,490,48,490,24,490L0,490Z"/></svg>